{
    "asset" : {
        "generator" : "Khronos glTF Blender I/O v1.7.33",
        "version" : "2.0"
    },
    "scene" : 0,
    "scenes" : [
        {
            "name" : "Scene",
            "nodes" : [
                0,
                1,
                2,
                3,
                4
            ]
        }
    ],
    "nodes" : [
        {
            "mesh" : 0,
            "name" : "Anillo",
            "scale" : [
                0.8303395509719849,
                1,
                0.7651380896568298
            ],
            "translation" : [
                -9.517496109008789,
                65.50509643554688,
                0.33221960067749023
            ]
        },
        {
            "mesh" : 1,
            "name" : "Anillo.001",
            "scale" : [
                0.8303395509719849,
                1,
                0.7651380896568298
            ],
            "translation" : [
                -9.517496109008789,
                36.8329963684082,
                0.33221960067749023
            ]
        },
        {
            "mesh" : 2,
            "name" : "Anillo.002",
            "scale" : [
                0.8303395509719849,
                1,
                0.7651380896568298
            ],
            "translation" : [
                -9.517496109008789,
                44.76900100708008,
                0.33221960067749023
            ]
        },
        {
            "mesh" : 3,
            "name" : "Anillo.003",
            "scale" : [
                0.8303395509719849,
                1,
                0.7651380896568298
            ],
            "translation" : [
                -9.517496109008789,
                54.240997314453125,
                0.33221960067749023
            ]
        },
        {
            "mesh" : 4,
            "name" : "Anillo.004",
            "scale" : [
                0.8303395509719849,
                1,
                0.7651380896568298
            ],
            "translation" : [
                -9.517496109008789,
                62.17700958251953,
                0.33221960067749023
            ]
        }
    ],
    "animations" : [
        {
            "channels" : [
                {
                    "sampler" : 0,
                    "target" : {
                        "node" : 0,
                        "path" : "translation"
                    }
                },
                {
                    "sampler" : 1,
                    "target" : {
                        "node" : 1,
                        "path" : "translation"
                    }
                },
                {
                    "sampler" : 2,
                    "target" : {
                        "node" : 2,
                        "path" : "translation"
                    }
                },
                {
                    "sampler" : 3,
                    "target" : {
                        "node" : 3,
                        "path" : "translation"
                    }
                },
                {
                    "sampler" : 4,
                    "target" : {
                        "node" : 4,
                        "path" : "translation"
                    }
                }
            ],
            "name" : "Animation",
            "samplers" : [
                {
                    "input" : 16,
                    "interpolation" : "CUBICSPLINE",
                    "output" : 17
                },
                {
                    "input" : 18,
                    "interpolation" : "CUBICSPLINE",
                    "output" : 19
                },
                {
                    "input" : 20,
                    "interpolation" : "CUBICSPLINE",
                    "output" : 21
                },
                {
                    "input" : 22,
                    "interpolation" : "CUBICSPLINE",
                    "output" : 23
                },
                {
                    "input" : 24,
                    "interpolation" : "CUBICSPLINE",
                    "output" : 25
                }
            ]
        }
    ],
    "materials" : [
        {
            "doubleSided" : true,
            "emissiveFactor" : [
                0.44999998807907104,
                0.44999998807907104,
                0.44999998807907104
            ],
            "emissiveTexture" : {
                "index" : 0
            },
            "name" : "DLA_emission",
            "pbrMetallicRoughness" : {
                "baseColorTexture" : {
                    "index" : 1
                },
                "metallicFactor" : 0,
                "roughnessFactor" : 0.6000000238418579
            }
        },
        {
            "doubleSided" : true,
            "name" : "DLA_Base",
            "pbrMetallicRoughness" : {
                "baseColorTexture" : {
                    "index" : 2
                },
                "metallicFactor" : 0,
                "roughnessFactor" : 0.699999988079071
            }
        }
    ],
    "meshes" : [
        {
            "name" : "Torus",
            "primitives" : [
                {
                    "attributes" : {
                        "POSITION" : 0,
                        "NORMAL" : 1,
                        "TEXCOORD_0" : 2
                    },
                    "indices" : 3,
                    "material" : 0
                }
            ]
        },
        {
            "name" : "Torus.001",
            "primitives" : [
                {
                    "attributes" : {
                        "POSITION" : 4,
                        "NORMAL" : 5,
                        "TEXCOORD_0" : 6
                    },
                    "indices" : 3,
                    "material" : 0
                }
            ]
        },
        {
            "name" : "Torus.002",
            "primitives" : [
                {
                    "attributes" : {
                        "POSITION" : 7,
                        "NORMAL" : 8,
                        "TEXCOORD_0" : 9
                    },
                    "indices" : 3,
                    "material" : 0
                }
            ]
        },
        {
            "name" : "Torus.003",
            "primitives" : [
                {
                    "attributes" : {
                        "POSITION" : 10,
                        "NORMAL" : 11,
                        "TEXCOORD_0" : 12
                    },
                    "indices" : 3,
                    "material" : 1
                }
            ]
        },
        {
            "name" : "Torus.004",
            "primitives" : [
                {
                    "attributes" : {
                        "POSITION" : 13,
                        "NORMAL" : 14,
                        "TEXCOORD_0" : 15
                    },
                    "indices" : 3,
                    "material" : 1
                }
            ]
        }
    ],
    "textures" : [
        {
            "sampler" : 0,
            "source" : 0
        },
        {
            "sampler" : 0,
            "source" : 0
        },
        {
            "sampler" : 0,
            "source" : 0
        }
    ],
    "images" : [
        {
            "bufferView" : 4,
            "mimeType" : "image/png",
            "name" : "MiniTown_TX_nombrespisos"
        }
    ],
    "accessors" : [
        {
            "bufferView" : 0,
            "componentType" : 5126,
            "count" : 1028,
            "max" : [
                19.989999771118164,
                1.342339277267456,
                19.989999771118164
            ],
            "min" : [
                -19.989999771118164,
                -1.342339277267456,
                -19.989999771118164
            ],
            "type" : "VEC3"
        },
        {
            "bufferView" : 1,
            "componentType" : 5126,
            "count" : 1028,
            "type" : "VEC3"
        },
        {
            "bufferView" : 2,
            "componentType" : 5126,
            "count" : 1028,
            "type" : "VEC2"
        },
        {
            "bufferView" : 3,
            "componentType" : 5123,
            "count" : 1728,
            "type" : "SCALAR"
        },
        {
            "bufferView" : 5,
            "componentType" : 5126,
            "count" : 1028,
            "max" : [
                19.989999771118164,
                1.342339277267456,
                19.989999771118164
            ],
            "min" : [
                -19.989999771118164,
                -1.342339277267456,
                -19.989999771118164
            ],
            "type" : "VEC3"
        },
        {
            "bufferView" : 6,
            "componentType" : 5126,
            "count" : 1028,
            "type" : "VEC3"
        },
        {
            "bufferView" : 7,
            "componentType" : 5126,
            "count" : 1028,
            "type" : "VEC2"
        },
        {
            "bufferView" : 8,
            "componentType" : 5126,
            "count" : 1028,
            "max" : [
                19.989999771118164,
                1.342339277267456,
                19.989999771118164
            ],
            "min" : [
                -19.989999771118164,
                -1.342339277267456,
                -19.989999771118164
            ],
            "type" : "VEC3"
        },
        {
            "bufferView" : 9,
            "componentType" : 5126,
            "count" : 1028,
            "type" : "VEC3"
        },
        {
            "bufferView" : 10,
            "componentType" : 5126,
            "count" : 1028,
            "type" : "VEC2"
        },
        {
            "bufferView" : 11,
            "componentType" : 5126,
            "count" : 1028,
            "max" : [
                19.989999771118164,
                1.342339277267456,
                19.989999771118164
            ],
            "min" : [
                -19.989999771118164,
                -1.342339277267456,
                -19.989999771118164
            ],
            "type" : "VEC3"
        },
        {
            "bufferView" : 12,
            "componentType" : 5126,
            "count" : 1028,
            "type" : "VEC3"
        },
        {
            "bufferView" : 13,
            "componentType" : 5126,
            "count" : 1028,
            "type" : "VEC2"
        },
        {
            "bufferView" : 14,
            "componentType" : 5126,
            "count" : 1028,
            "max" : [
                19.989999771118164,
                1.342339277267456,
                19.989999771118164
            ],
            "min" : [
                -19.989999771118164,
                -1.342339277267456,
                -19.989999771118164
            ],
            "type" : "VEC3"
        },
        {
            "bufferView" : 15,
            "componentType" : 5126,
            "count" : 1028,
            "type" : "VEC3"
        },
        {
            "bufferView" : 16,
            "componentType" : 5126,
            "count" : 1028,
            "type" : "VEC2"
        },
        {
            "bufferView" : 17,
            "componentType" : 5126,
            "count" : 4,
            "max" : [
                2.5
            ],
            "min" : [
                0
            ],
            "type" : "SCALAR"
        },
        {
            "bufferView" : 18,
            "componentType" : 5126,
            "count" : 12,
            "type" : "VEC3"
        },
        {
            "bufferView" : 19,
            "componentType" : 5126,
            "count" : 4,
            "max" : [
                1.8333333333333333
            ],
            "min" : [
                -0.6666666666666666
            ],
            "type" : "SCALAR"
        },
        {
            "bufferView" : 20,
            "componentType" : 5126,
            "count" : 12,
            "type" : "VEC3"
        },
        {
            "bufferView" : 21,
            "componentType" : 5126,
            "count" : 4,
            "max" : [
                2
            ],
            "min" : [
                -0.5
            ],
            "type" : "SCALAR"
        },
        {
            "bufferView" : 22,
            "componentType" : 5126,
            "count" : 12,
            "type" : "VEC3"
        },
        {
            "bufferView" : 23,
            "componentType" : 5126,
            "count" : 4,
            "max" : [
                2.1666666666666665
            ],
            "min" : [
                -0.3333333333333333
            ],
            "type" : "SCALAR"
        },
        {
            "bufferView" : 24,
            "componentType" : 5126,
            "count" : 12,
            "type" : "VEC3"
        },
        {
            "bufferView" : 25,
            "componentType" : 5126,
            "count" : 4,
            "max" : [
                2.3333333333333335
            ],
            "min" : [
                -0.16666666666666666
            ],
            "type" : "SCALAR"
        },
        {
            "bufferView" : 26,
            "componentType" : 5126,
            "count" : 12,
            "type" : "VEC3"
        }
    ],
    "bufferViews" : [
        {
            "buffer" : 0,
            "byteLength" : 12336,
            "byteOffset" : 0
        },
        {
            "buffer" : 0,
            "byteLength" : 12336,
            "byteOffset" : 12336
        },
        {
            "buffer" : 0,
            "byteLength" : 8224,
            "byteOffset" : 24672
        },
        {
            "buffer" : 0,
            "byteLength" : 3456,
            "byteOffset" : 32896
        },
        {
            "buffer" : 0,
            "byteLength" : 27427,
            "byteOffset" : 36352
        },
        {
            "buffer" : 0,
            "byteLength" : 12336,
            "byteOffset" : 63780
        },
        {
            "buffer" : 0,
            "byteLength" : 12336,
            "byteOffset" : 76116
        },
        {
            "buffer" : 0,
            "byteLength" : 8224,
            "byteOffset" : 88452
        },
        {
            "buffer" : 0,
            "byteLength" : 12336,
            "byteOffset" : 96676
        },
        {
            "buffer" : 0,
            "byteLength" : 12336,
            "byteOffset" : 109012
        },
        {
            "buffer" : 0,
            "byteLength" : 8224,
            "byteOffset" : 121348
        },
        {
            "buffer" : 0,
            "byteLength" : 12336,
            "byteOffset" : 129572
        },
        {
            "buffer" : 0,
            "byteLength" : 12336,
            "byteOffset" : 141908
        },
        {
            "buffer" : 0,
            "byteLength" : 8224,
            "byteOffset" : 154244
        },
        {
            "buffer" : 0,
            "byteLength" : 12336,
            "byteOffset" : 162468
        },
        {
            "buffer" : 0,
            "byteLength" : 12336,
            "byteOffset" : 174804
        },
        {
            "buffer" : 0,
            "byteLength" : 8224,
            "byteOffset" : 187140
        },
        {
            "buffer" : 0,
            "byteLength" : 16,
            "byteOffset" : 195364
        },
        {
            "buffer" : 0,
            "byteLength" : 144,
            "byteOffset" : 195380
        },
        {
            "buffer" : 0,
            "byteLength" : 16,
            "byteOffset" : 195524
        },
        {
            "buffer" : 0,
            "byteLength" : 144,
            "byteOffset" : 195540
        },
        {
            "buffer" : 0,
            "byteLength" : 16,
            "byteOffset" : 195684
        },
        {
            "buffer" : 0,
            "byteLength" : 144,
            "byteOffset" : 195700
        },
        {
            "buffer" : 0,
            "byteLength" : 16,
            "byteOffset" : 195844
        },
        {
            "buffer" : 0,
            "byteLength" : 144,
            "byteOffset" : 195860
        },
        {
            "buffer" : 0,
            "byteLength" : 16,
            "byteOffset" : 196004
        },
        {
            "buffer" : 0,
            "byteLength" : 144,
            "byteOffset" : 196020
        }
    ],
    "samplers" : [
        {
            "magFilter" : 9729,
            "minFilter" : 9987
        }
    ],
    "buffers" : [
        {
            "byteLength" : 196164,
            "uri" : "data:application/octet-stream;base64,"
        }
    ]
}
