{
    "asset" : {
        "generator" : "Khronos glTF Blender I/O v1.7.33",
        "version" : "2.0"
    },
    "scene" : 0,
    "scenes" : [
        {
            "name" : "Scene",
            "nodes" : [
                0,
                1,
                2,
                3,
                4
            ]
        }
    ],
    "nodes" : [
        {
            "mesh" : 0,
            "name" : "Cylinder.001",
            "scale" : [
                20,
                1,
                15.159807205200195
            ],
            "translation" : [
                -9.517496109008789,
                36.8329963684082,
                0.33221960067749023
            ]
        },
        {
            "mesh" : 1,
            "name" : "Cylinder.002",
            "scale" : [
                20,
                1,
                15.159807205200195
            ],
            "translation" : [
                -9.517496109008789,
                44.76900100708008,
                0.33221960067749023
            ]
        },
        {
            "mesh" : 2,
            "name" : "Cylinder.003",
            "scale" : [
                20,
                1,
                15.159807205200195
            ],
            "translation" : [
                -9.517496109008789,
                54.240997314453125,
                0.33221960067749023
            ]
        },
        {
            "mesh" : 3,
            "name" : "Cylinder.004",
            "scale" : [
                20,
                1,
                15.159807205200195
            ],
            "translation" : [
                -9.517496109008789,
                62.17700958251953,
                0.33221960067749023
            ]
        },
        {
            "mesh" : 4,
            "name" : "Cylinder.005",
            "scale" : [
                20,
                1,
                15.159807205200195
            ],
            "translation" : [
                -9.517496109008789,
                65.50509643554688,
                0.33221960067749023
            ]
        }
    ],
    "animations" : [
        {
            "channels" : [
                {
                    "sampler" : 0,
                    "target" : {
                        "node" : 0,
                        "path" : "translation"
                    }
                },
                {
                    "sampler" : 1,
                    "target" : {
                        "node" : 1,
                        "path" : "translation"
                    }
                },
                {
                    "sampler" : 2,
                    "target" : {
                        "node" : 2,
                        "path" : "translation"
                    }
                },
                {
                    "sampler" : 3,
                    "target" : {
                        "node" : 3,
                        "path" : "translation"
                    }
                },
                {
                    "sampler" : 4,
                    "target" : {
                        "node" : 4,
                        "path" : "translation"
                    }
                }
            ],
            "name" : "Animation",
            "samplers" : [
                {
                    "input" : 16,
                    "interpolation" : "CUBICSPLINE",
                    "output" : 17
                },
                {
                    "input" : 18,
                    "interpolation" : "CUBICSPLINE",
                    "output" : 19
                },
                {
                    "input" : 20,
                    "interpolation" : "CUBICSPLINE",
                    "output" : 21
                },
                {
                    "input" : 22,
                    "interpolation" : "CUBICSPLINE",
                    "output" : 23
                },
                {
                    "input" : 24,
                    "interpolation" : "CUBICSPLINE",
                    "output" : 25
                }
            ]
        }
    ],
    "materials" : [
        {
            "doubleSided" : true,
            "emissiveFactor" : [
                0.44999998807907104,
                0.44999998807907104,
                0.44999998807907104
            ],
            "emissiveTexture" : {
                "index" : 0
            },
            "name" : "DLA_emission",
            "pbrMetallicRoughness" : {
                "baseColorTexture" : {
                    "index" : 1
                },
                "metallicFactor" : 0,
                "roughnessFactor" : 0.6000000238418579
            }
        }
    ],
    "meshes" : [
        {
            "name" : "Cylinder.001",
            "primitives" : [
                {
                    "attributes" : {
                        "POSITION" : 0,
                        "NORMAL" : 1,
                        "TEXCOORD_0" : 2
                    },
                    "indices" : 3,
                    "material" : 0
                }
            ]
        },
        {
            "name" : "Cylinder.004",
            "primitives" : [
                {
                    "attributes" : {
                        "POSITION" : 4,
                        "NORMAL" : 5,
                        "TEXCOORD_0" : 6
                    },
                    "indices" : 3,
                    "material" : 0
                }
            ]
        },
        {
            "name" : "Cylinder.005",
            "primitives" : [
                {
                    "attributes" : {
                        "POSITION" : 7,
                        "NORMAL" : 8,
                        "TEXCOORD_0" : 9
                    },
                    "indices" : 3,
                    "material" : 0
                }
            ]
        },
        {
            "name" : "Cylinder.006",
            "primitives" : [
                {
                    "attributes" : {
                        "POSITION" : 10,
                        "NORMAL" : 11,
                        "TEXCOORD_0" : 12
                    },
                    "indices" : 3,
                    "material" : 0
                }
            ]
        },
        {
            "name" : "Cylinder.007",
            "primitives" : [
                {
                    "attributes" : {
                        "POSITION" : 13,
                        "NORMAL" : 14,
                        "TEXCOORD_0" : 15
                    },
                    "indices" : 3,
                    "material" : 0
                }
            ]
        }
    ],
    "textures" : [
        {
            "sampler" : 0,
            "source" : 0
        },
        {
            "sampler" : 0,
            "source" : 0
        }
    ],
    "images" : [
        {
            "bufferView" : 4,
            "mimeType" : "image/png",
            "name" : "MiniTown_TX_nombrespisos"
        }
    ],
    "accessors" : [
        {
            "bufferView" : 0,
            "componentType" : 5126,
            "count" : 516,
            "max" : [
                0.9999999403953552,
                1,
                0.9999999403953552
            ],
            "min" : [
                -0.9999999403953552,
                -1,
                -0.9999999403953552
            ],
            "type" : "VEC3"
        },
        {
            "bufferView" : 1,
            "componentType" : 5126,
            "count" : 516,
            "type" : "VEC3"
        },
        {
            "bufferView" : 2,
            "componentType" : 5126,
            "count" : 516,
            "type" : "VEC2"
        },
        {
            "bufferView" : 3,
            "componentType" : 5123,
            "count" : 768,
            "type" : "SCALAR"
        },
        {
            "bufferView" : 5,
            "componentType" : 5126,
            "count" : 516,
            "max" : [
                0.9999999403953552,
                1,
                0.9999999403953552
            ],
            "min" : [
                -0.9999999403953552,
                -1,
                -0.9999999403953552
            ],
            "type" : "VEC3"
        },
        {
            "bufferView" : 6,
            "componentType" : 5126,
            "count" : 516,
            "type" : "VEC3"
        },
        {
            "bufferView" : 7,
            "componentType" : 5126,
            "count" : 516,
            "type" : "VEC2"
        },
        {
            "bufferView" : 8,
            "componentType" : 5126,
            "count" : 516,
            "max" : [
                0.9999999403953552,
                1,
                0.9999999403953552
            ],
            "min" : [
                -0.9999999403953552,
                -1,
                -0.9999999403953552
            ],
            "type" : "VEC3"
        },
        {
            "bufferView" : 9,
            "componentType" : 5126,
            "count" : 516,
            "type" : "VEC3"
        },
        {
            "bufferView" : 10,
            "componentType" : 5126,
            "count" : 516,
            "type" : "VEC2"
        },
        {
            "bufferView" : 11,
            "componentType" : 5126,
            "count" : 516,
            "max" : [
                0.9999999403953552,
                1,
                0.9999999403953552
            ],
            "min" : [
                -0.9999999403953552,
                -1,
                -0.9999999403953552
            ],
            "type" : "VEC3"
        },
        {
            "bufferView" : 12,
            "componentType" : 5126,
            "count" : 516,
            "type" : "VEC3"
        },
        {
            "bufferView" : 13,
            "componentType" : 5126,
            "count" : 516,
            "type" : "VEC2"
        },
        {
            "bufferView" : 14,
            "componentType" : 5126,
            "count" : 516,
            "max" : [
                0.9999999403953552,
                1,
                0.9999999403953552
            ],
            "min" : [
                -0.9999999403953552,
                -1,
                -0.9999999403953552
            ],
            "type" : "VEC3"
        },
        {
            "bufferView" : 15,
            "componentType" : 5126,
            "count" : 516,
            "type" : "VEC3"
        },
        {
            "bufferView" : 16,
            "componentType" : 5126,
            "count" : 516,
            "type" : "VEC2"
        },
        {
            "bufferView" : 17,
            "componentType" : 5126,
            "count" : 16,
            "max" : [
                11.875
            ],
            "min" : [
                -0.6666666666666666
            ],
            "type" : "SCALAR"
        },
        {
            "bufferView" : 18,
            "componentType" : 5126,
            "count" : 48,
            "type" : "VEC3"
        },
        {
            "bufferView" : 19,
            "componentType" : 5126,
            "count" : 16,
            "max" : [
                12
            ],
            "min" : [
                -0.5
            ],
            "type" : "SCALAR"
        },
        {
            "bufferView" : 20,
            "componentType" : 5126,
            "count" : 48,
            "type" : "VEC3"
        },
        {
            "bufferView" : 21,
            "componentType" : 5126,
            "count" : 16,
            "max" : [
                12.166666666666666
            ],
            "min" : [
                -0.3333333333333333
            ],
            "type" : "SCALAR"
        },
        {
            "bufferView" : 22,
            "componentType" : 5126,
            "count" : 48,
            "type" : "VEC3"
        },
        {
            "bufferView" : 23,
            "componentType" : 5126,
            "count" : 16,
            "max" : [
                12.333333333333334
            ],
            "min" : [
                -0.16666666666666666
            ],
            "type" : "SCALAR"
        },
        {
            "bufferView" : 24,
            "componentType" : 5126,
            "count" : 48,
            "type" : "VEC3"
        },
        {
            "bufferView" : 25,
            "componentType" : 5126,
            "count" : 16,
            "max" : [
                12.5
            ],
            "min" : [
                0
            ],
            "type" : "SCALAR"
        },
        {
            "bufferView" : 26,
            "componentType" : 5126,
            "count" : 48,
            "type" : "VEC3"
        }
    ],
    "bufferViews" : [
        {
            "buffer" : 0,
            "byteLength" : 6192,
            "byteOffset" : 0
        },
        {
            "buffer" : 0,
            "byteLength" : 6192,
            "byteOffset" : 6192
        },
        {
            "buffer" : 0,
            "byteLength" : 4128,
            "byteOffset" : 12384
        },
        {
            "buffer" : 0,
            "byteLength" : 1536,
            "byteOffset" : 16512
        },
        {
            "buffer" : 0,
            "byteLength" : 27427,
            "byteOffset" : 18048
        },
        {
            "buffer" : 0,
            "byteLength" : 6192,
            "byteOffset" : 45476
        },
        {
            "buffer" : 0,
            "byteLength" : 6192,
            "byteOffset" : 51668
        },
        {
            "buffer" : 0,
            "byteLength" : 4128,
            "byteOffset" : 57860
        },
        {
            "buffer" : 0,
            "byteLength" : 6192,
            "byteOffset" : 61988
        },
        {
            "buffer" : 0,
            "byteLength" : 6192,
            "byteOffset" : 68180
        },
        {
            "buffer" : 0,
            "byteLength" : 4128,
            "byteOffset" : 74372
        },
        {
            "buffer" : 0,
            "byteLength" : 6192,
            "byteOffset" : 78500
        },
        {
            "buffer" : 0,
            "byteLength" : 6192,
            "byteOffset" : 84692
        },
        {
            "buffer" : 0,
            "byteLength" : 4128,
            "byteOffset" : 90884
        },
        {
            "buffer" : 0,
            "byteLength" : 6192,
            "byteOffset" : 95012
        },
        {
            "buffer" : 0,
            "byteLength" : 6192,
            "byteOffset" : 101204
        },
        {
            "buffer" : 0,
            "byteLength" : 4128,
            "byteOffset" : 107396
        },
        {
            "buffer" : 0,
            "byteLength" : 64,
            "byteOffset" : 111524
        },
        {
            "buffer" : 0,
            "byteLength" : 576,
            "byteOffset" : 111588
        },
        {
            "buffer" : 0,
            "byteLength" : 64,
            "byteOffset" : 112164
        },
        {
            "buffer" : 0,
            "byteLength" : 576,
            "byteOffset" : 112228
        },
        {
            "buffer" : 0,
            "byteLength" : 64,
            "byteOffset" : 112804
        },
        {
            "buffer" : 0,
            "byteLength" : 576,
            "byteOffset" : 112868
        },
        {
            "buffer" : 0,
            "byteLength" : 64,
            "byteOffset" : 113444
        },
        {
            "buffer" : 0,
            "byteLength" : 576,
            "byteOffset" : 113508
        },
        {
            "buffer" : 0,
            "byteLength" : 64,
            "byteOffset" : 114084
        },
        {
            "buffer" : 0,
            "byteLength" : 576,
            "byteOffset" : 114148
        }
    ],
    "samplers" : [
        {
            "magFilter" : 9729,
            "minFilter" : 9987
        }
    ],
    "buffers" : [
        {
            "byteLength" : 114724,
            "uri" : "data:application/octet-stream;base64,"
        }
    ]
}
