{
    "asset" : {
        "generator" : "Khronos glTF Blender I/O v1.7.33",
        "version" : "2.0"
    },
    "scene" : 0,
    "scenes" : [
        {
            "name" : "Scene",
            "nodes" : [
                0,
                1,
                2
            ]
        }
    ],
    "nodes" : [
        {
            "mesh" : 0,
            "name" : "Elevator_collider"
        },
        {
            "mesh" : 1,
            "name" : "Elevator",
            "scale" : [
                3.9548656940460205,
                1,
                1.4570348262786865
            ],
            "translation" : [
                -8.427633285522461,
                0.054666146636009216,
                -0.7903838753700256
            ]
        },
        {
            "mesh" : 2,
            "name" : "Buttons",
            "scale" : [
                1.5099072456359863,
                1.5099072456359863,
                1.5099072456359863
            ],
            "translation" : [
                -8.10124683380127,
                1.6312034130096436,
                1.8044672012329102
            ]
        }
    ],
    "materials" : [
        {
            "doubleSided" : true,
            "emissiveFactor" : [
                0.44999998807907104,
                0.44999998807907104,
                0.44999998807907104
            ],
            "emissiveTexture" : {
                "index" : 0
            },
            "name" : "Material_dla",
            "pbrMetallicRoughness" : {
                "baseColorTexture" : {
                    "index" : 1
                },
                "metallicFactor" : 0,
                "roughnessFactor" : 0.4000000059604645
            }
        }
    ],
    "meshes" : [
        {
            "name" : "Geometry114.004",
            "primitives" : [
                {
                    "attributes" : {
                        "POSITION" : 0,
                        "NORMAL" : 1,
                        "TEXCOORD_0" : 2,
                        "TEXCOORD_1" : 3,
                        "TEXCOORD_2" : 4,
                        "TEXCOORD_3" : 5
                    },
                    "indices" : 6
                }
            ]
        },
        {
            "name" : "Cylinder.002",
            "primitives" : [
                {
                    "attributes" : {
                        "POSITION" : 7,
                        "NORMAL" : 8,
                        "TEXCOORD_0" : 9
                    },
                    "indices" : 10,
                    "material" : 0
                }
            ]
        },
        {
            "name" : "Cube",
            "primitives" : [
                {
                    "attributes" : {
                        "POSITION" : 11,
                        "NORMAL" : 12,
                        "TEXCOORD_0" : 13
                    },
                    "indices" : 14,
                    "material" : 0
                }
            ]
        }
    ],
    "textures" : [
        {
            "sampler" : 0,
            "source" : 0
        },
        {
            "sampler" : 0,
            "source" : 0
        }
    ],
    "images" : [
        {
            "bufferView" : 11,
            "mimeType" : "image/png",
            "name" : "MiniTown_TX_nombrespisos"
        }
    ],
    "accessors" : [
        {
            "bufferView" : 0,
            "componentType" : 5126,
            "count" : 1224,
            "max" : [
                -2.456465244293213,
                2.755791664123535,
                2.780749797821045
            ],
            "min" : [
                -14.398798942565918,
                0.05441736429929733,
                -2.990738868713379
            ],
            "type" : "VEC3"
        },
        {
            "bufferView" : 1,
            "componentType" : 5126,
            "count" : 1224,
            "type" : "VEC3"
        },
        {
            "bufferView" : 2,
            "componentType" : 5126,
            "count" : 1224,
            "type" : "VEC2"
        },
        {
            "bufferView" : 3,
            "componentType" : 5126,
            "count" : 1224,
            "type" : "VEC2"
        },
        {
            "bufferView" : 4,
            "componentType" : 5126,
            "count" : 1224,
            "type" : "VEC2"
        },
        {
            "bufferView" : 5,
            "componentType" : 5126,
            "count" : 1224,
            "type" : "VEC2"
        },
        {
            "bufferView" : 6,
            "componentType" : 5123,
            "count" : 2724,
            "type" : "SCALAR"
        },
        {
            "bufferView" : 7,
            "componentType" : 5126,
            "count" : 1200,
            "max" : [
                1.499671459197998,
                0.11015263199806213,
                1.5
            ],
            "min" : [
                -1.4996705055236816,
                2.9802322387695312e-08,
                -1.5
            ],
            "type" : "VEC3"
        },
        {
            "bufferView" : 8,
            "componentType" : 5126,
            "count" : 1200,
            "type" : "VEC3"
        },
        {
            "bufferView" : 9,
            "componentType" : 5126,
            "count" : 1200,
            "type" : "VEC2"
        },
        {
            "bufferView" : 10,
            "componentType" : 5123,
            "count" : 2688,
            "type" : "SCALAR"
        },
        {
            "bufferView" : 12,
            "componentType" : 5126,
            "count" : 3071,
            "max" : [
                0.7874908447265625,
                0.6352071166038513,
                0.5333671569824219
            ],
            "min" : [
                -1.1585779190063477,
                -1.0650582313537598,
                -0.33112797141075134
            ],
            "type" : "VEC3"
        },
        {
            "bufferView" : 13,
            "componentType" : 5126,
            "count" : 3071,
            "type" : "VEC3"
        },
        {
            "bufferView" : 14,
            "componentType" : 5126,
            "count" : 3071,
            "type" : "VEC2"
        },
        {
            "bufferView" : 15,
            "componentType" : 5123,
            "count" : 4860,
            "type" : "SCALAR"
        }
    ],
    "bufferViews" : [
        {
            "buffer" : 0,
            "byteLength" : 14688,
            "byteOffset" : 0
        },
        {
            "buffer" : 0,
            "byteLength" : 14688,
            "byteOffset" : 14688
        },
        {
            "buffer" : 0,
            "byteLength" : 9792,
            "byteOffset" : 29376
        },
        {
            "buffer" : 0,
            "byteLength" : 9792,
            "byteOffset" : 39168
        },
        {
            "buffer" : 0,
            "byteLength" : 9792,
            "byteOffset" : 48960
        },
        {
            "buffer" : 0,
            "byteLength" : 9792,
            "byteOffset" : 58752
        },
        {
            "buffer" : 0,
            "byteLength" : 5448,
            "byteOffset" : 68544
        },
        {
            "buffer" : 0,
            "byteLength" : 14400,
            "byteOffset" : 73992
        },
        {
            "buffer" : 0,
            "byteLength" : 14400,
            "byteOffset" : 88392
        },
        {
            "buffer" : 0,
            "byteLength" : 9600,
            "byteOffset" : 102792
        },
        {
            "buffer" : 0,
            "byteLength" : 5376,
            "byteOffset" : 112392
        },
        {
            "buffer" : 0,
            "byteLength" : 20091,
            "byteOffset" : 117768
        },
        {
            "buffer" : 0,
            "byteLength" : 36852,
            "byteOffset" : 137860
        },
        {
            "buffer" : 0,
            "byteLength" : 36852,
            "byteOffset" : 174712
        },
        {
            "buffer" : 0,
            "byteLength" : 24568,
            "byteOffset" : 211564
        },
        {
            "buffer" : 0,
            "byteLength" : 9720,
            "byteOffset" : 236132
        }
    ],
    "samplers" : [
        {
            "magFilter" : 9729,
            "minFilter" : 9987
        }
    ],
    "buffers" : [
        {
            "byteLength" : 245852,
            "uri" : "data:application/octet-stream;base64,"
        }
    ]
}
