{
    "asset" : {
        "generator" : "Khronos glTF Blender I/O v1.7.33",
        "version" : "2.0"
    },
    "scene" : 0,
    "scenes" : [
        {
            "name" : "Scene",
            "nodes" : [
                0,
                1,
                2
            ]
        }
    ],
    "nodes" : [
        {
            "mesh" : 0,
            "name" : "Elevator",
            "rotation" : [
                0,
                -0.7071068286895752,
                0,
                0.7071068286895752
            ],
            "scale" : [
                3.9548656940460205,
                1,
                1.4570348262786865
            ],
            "translation" : [
                4.7061896324157715,
                0.09138371795415878,
                -2.7144672870635986
            ]
        },
        {
            "mesh" : 1,
            "name" : "Buttons",
            "rotation" : [
                0,
                -0.7071068286895752,
                0,
                0.7071068286895752
            ],
            "scale" : [
                1.5099072456359863,
                1.5099072456359863,
                1.5099072456359863
            ],
            "translation" : [
                2.1924452781677246,
                1.6109576225280762,
                -2.388094425201416
            ]
        },
        {
            "mesh" : 2,
            "name" : "Elevator_collider",
            "rotation" : [
                0,
                -0.7071068286895752,
                0,
                0.7071068286895752
            ],
            "translation" : [
                4.653575420379639,
                0.1214902475476265,
                -2.7538347244262695
            ]
        }
    ],
    "materials" : [
        {
            "doubleSided" : true,
            "emissiveFactor" : [
                0.44999998807907104,
                0.44999998807907104,
                0.44999998807907104
            ],
            "emissiveTexture" : {
                "index" : 0
            },
            "name" : "DLA_emission",
            "pbrMetallicRoughness" : {
                "baseColorTexture" : {
                    "index" : 1
                },
                "metallicFactor" : 0,
                "roughnessFactor" : 0.6000000238418579
            }
        },
        {
            "doubleSided" : true,
            "name" : "DLA_Base",
            "pbrMetallicRoughness" : {
                "baseColorTexture" : {
                    "index" : 2
                },
                "metallicFactor" : 0,
                "roughnessFactor" : 0.699999988079071
            }
        }
    ],
    "meshes" : [
        {
            "name" : "Cylinder.002",
            "primitives" : [
                {
                    "attributes" : {
                        "POSITION" : 0,
                        "NORMAL" : 1,
                        "TEXCOORD_0" : 2
                    },
                    "indices" : 3,
                    "material" : 0
                },
                {
                    "attributes" : {
                        "POSITION" : 4,
                        "NORMAL" : 5,
                        "TEXCOORD_0" : 6
                    },
                    "indices" : 7,
                    "material" : 1
                }
            ]
        },
        {
            "name" : "Cube",
            "primitives" : [
                {
                    "attributes" : {
                        "POSITION" : 8,
                        "NORMAL" : 9,
                        "TEXCOORD_0" : 10
                    },
                    "indices" : 11,
                    "material" : 0
                },
                {
                    "attributes" : {
                        "POSITION" : 12,
                        "NORMAL" : 13,
                        "TEXCOORD_0" : 14
                    },
                    "indices" : 15,
                    "material" : 1
                }
            ]
        },
        {
            "name" : "Geometry114.004",
            "primitives" : [
                {
                    "attributes" : {
                        "POSITION" : 16,
                        "NORMAL" : 17,
                        "TEXCOORD_0" : 18,
                        "TEXCOORD_1" : 19,
                        "TEXCOORD_2" : 20,
                        "TEXCOORD_3" : 21
                    },
                    "indices" : 22
                }
            ]
        }
    ],
    "textures" : [
        {
            "sampler" : 0,
            "source" : 0
        },
        {
            "sampler" : 0,
            "source" : 0
        },
        {
            "sampler" : 0,
            "source" : 0
        }
    ],
    "images" : [
        {
            "bufferView" : 4,
            "mimeType" : "image/png",
            "name" : "MiniTown_TX_nombrespisos"
        }
    ],
    "accessors" : [
        {
            "bufferView" : 0,
            "componentType" : 5126,
            "count" : 900,
            "max" : [
                1.4996709823608398,
                0.07343513518571854,
                1.5
            ],
            "min" : [
                -1.4996709823608398,
                -0.03671746701002121,
                -1.5
            ],
            "type" : "VEC3"
        },
        {
            "bufferView" : 1,
            "componentType" : 5126,
            "count" : 900,
            "type" : "VEC3"
        },
        {
            "bufferView" : 2,
            "componentType" : 5126,
            "count" : 900,
            "type" : "VEC2"
        },
        {
            "bufferView" : 3,
            "componentType" : 5123,
            "count" : 1800,
            "type" : "SCALAR"
        },
        {
            "bufferView" : 5,
            "componentType" : 5126,
            "count" : 300,
            "max" : [
                1.4996709823608398,
                0.07343513518571854,
                1.5
            ],
            "min" : [
                -1.4996709823608398,
                -0.03671746701002121,
                -1.5
            ],
            "type" : "VEC3"
        },
        {
            "bufferView" : 6,
            "componentType" : 5126,
            "count" : 300,
            "type" : "VEC3"
        },
        {
            "bufferView" : 7,
            "componentType" : 5126,
            "count" : 300,
            "type" : "VEC2"
        },
        {
            "bufferView" : 8,
            "componentType" : 5123,
            "count" : 888,
            "type" : "SCALAR"
        },
        {
            "bufferView" : 9,
            "componentType" : 5126,
            "count" : 1132,
            "max" : [
                0.7050698399543762,
                0.5819041728973389,
                0.4142950773239136
            ],
            "min" : [
                -0.986186683177948,
                -0.2628001570701599,
                -0.24422329664230347
            ],
            "type" : "VEC3"
        },
        {
            "bufferView" : 10,
            "componentType" : 5126,
            "count" : 1132,
            "type" : "VEC3"
        },
        {
            "bufferView" : 11,
            "componentType" : 5126,
            "count" : 1132,
            "type" : "VEC2"
        },
        {
            "bufferView" : 12,
            "componentType" : 5123,
            "count" : 1770,
            "type" : "SCALAR"
        },
        {
            "bufferView" : 13,
            "componentType" : 5126,
            "count" : 1935,
            "max" : [
                0.7874987721443176,
                0.6486157178878784,
                0.5870832800865173
            ],
            "min" : [
                -1.1585700511932373,
                -1.051649570465088,
                -0.2774118483066559
            ],
            "type" : "VEC3"
        },
        {
            "bufferView" : 14,
            "componentType" : 5126,
            "count" : 1935,
            "type" : "VEC3"
        },
        {
            "bufferView" : 15,
            "componentType" : 5126,
            "count" : 1935,
            "type" : "VEC2"
        },
        {
            "bufferView" : 16,
            "componentType" : 5123,
            "count" : 3090,
            "type" : "SCALAR"
        },
        {
            "bufferView" : 17,
            "componentType" : 5126,
            "count" : 1224,
            "max" : [
                5.970365047454834,
                2.6343014240264893,
                3.523171901702881
            ],
            "min" : [
                -5.971968650817871,
                -0.06707288324832916,
                -2.248316764831543
            ],
            "type" : "VEC3"
        },
        {
            "bufferView" : 18,
            "componentType" : 5126,
            "count" : 1224,
            "type" : "VEC3"
        },
        {
            "bufferView" : 19,
            "componentType" : 5126,
            "count" : 1224,
            "type" : "VEC2"
        },
        {
            "bufferView" : 20,
            "componentType" : 5126,
            "count" : 1224,
            "type" : "VEC2"
        },
        {
            "bufferView" : 21,
            "componentType" : 5126,
            "count" : 1224,
            "type" : "VEC2"
        },
        {
            "bufferView" : 22,
            "componentType" : 5126,
            "count" : 1224,
            "type" : "VEC2"
        },
        {
            "bufferView" : 23,
            "componentType" : 5123,
            "count" : 2724,
            "type" : "SCALAR"
        }
    ],
    "bufferViews" : [
        {
            "buffer" : 0,
            "byteLength" : 10800,
            "byteOffset" : 0
        },
        {
            "buffer" : 0,
            "byteLength" : 10800,
            "byteOffset" : 10800
        },
        {
            "buffer" : 0,
            "byteLength" : 7200,
            "byteOffset" : 21600
        },
        {
            "buffer" : 0,
            "byteLength" : 3600,
            "byteOffset" : 28800
        },
        {
            "buffer" : 0,
            "byteLength" : 27427,
            "byteOffset" : 32400
        },
        {
            "buffer" : 0,
            "byteLength" : 3600,
            "byteOffset" : 59828
        },
        {
            "buffer" : 0,
            "byteLength" : 3600,
            "byteOffset" : 63428
        },
        {
            "buffer" : 0,
            "byteLength" : 2400,
            "byteOffset" : 67028
        },
        {
            "buffer" : 0,
            "byteLength" : 1776,
            "byteOffset" : 69428
        },
        {
            "buffer" : 0,
            "byteLength" : 13584,
            "byteOffset" : 71204
        },
        {
            "buffer" : 0,
            "byteLength" : 13584,
            "byteOffset" : 84788
        },
        {
            "buffer" : 0,
            "byteLength" : 9056,
            "byteOffset" : 98372
        },
        {
            "buffer" : 0,
            "byteLength" : 3540,
            "byteOffset" : 107428
        },
        {
            "buffer" : 0,
            "byteLength" : 23220,
            "byteOffset" : 110968
        },
        {
            "buffer" : 0,
            "byteLength" : 23220,
            "byteOffset" : 134188
        },
        {
            "buffer" : 0,
            "byteLength" : 15480,
            "byteOffset" : 157408
        },
        {
            "buffer" : 0,
            "byteLength" : 6180,
            "byteOffset" : 172888
        },
        {
            "buffer" : 0,
            "byteLength" : 14688,
            "byteOffset" : 179068
        },
        {
            "buffer" : 0,
            "byteLength" : 14688,
            "byteOffset" : 193756
        },
        {
            "buffer" : 0,
            "byteLength" : 9792,
            "byteOffset" : 208444
        },
        {
            "buffer" : 0,
            "byteLength" : 9792,
            "byteOffset" : 218236
        },
        {
            "buffer" : 0,
            "byteLength" : 9792,
            "byteOffset" : 228028
        },
        {
            "buffer" : 0,
            "byteLength" : 9792,
            "byteOffset" : 237820
        },
        {
            "buffer" : 0,
            "byteLength" : 5448,
            "byteOffset" : 247612
        }
    ],
    "samplers" : [
        {
            "magFilter" : 9729,
            "minFilter" : 9987
        }
    ],
    "buffers" : [
        {
            "byteLength" : 253060,
            "uri" : "data:application/octet-stream;base64,"
        }
    ]
}
